<?xml version="1.0" encoding="utf-8"?>
<!-- Generator: Adobe Illustrator 26.1.0, SVG Export Plug-In . SVG Version: 6.00 Build 0)  -->
<svg version="1.1" id="Livello_1" xmlns="http://www.w3.org/2000/svg" xmlns:xlink="http://www.w3.org/1999/xlink" x="0px" y="0px"
	 viewBox="0 0 70 50" style="enable-background:new 0 0 70 50;" xml:space="preserve">
<style type="text/css">
	.st0{fill:#7F7BB1;}
</style>
<g id="SVGRepo_bgCarrier">
</g>
<g id="SVGRepo_tracerCarrier">
</g>
<g>
	<path class="st0" d="M35,0C21.2,0,10,11.2,10,25v0c0,13.8,11.2,25,25,25s25-11.2,25-25v0C60,11.2,48.8,0,35,0z M30.3,34h-3.9V20.1
		h3.9V34z M28.3,18.5c-1.3,0-2.3-1-2.3-2.2s1-2.2,2.3-2.2c1.3,0,2.3,1,2.3,2.2S29.6,18.5,28.3,18.5z M46,34h-3.9v-7.1
		c0-4.3-5.2-3.9-5.2,0V34h-3.9V20.1h3.9v2.2c1.8-3.3,9.2-3.5,9.2,3.1V34z"/>
</g>
</svg>
