<svg version="1.1" id="Livello_1" xmlns="http://www.w3.org/2000/svg" x="0" y="0" viewBox="0 0 50 50" style="" xml:space="preserve"><style type="text/css">.st0 { fill: rgb(127, 123, 177); }.st1 { fill-rule: evenodd; clip-rule: evenodd; fill: rgb(78, 71, 103); }</style><path class="st0" d="M25 50C11.2 50 0 38.8 0 25S11.2 0 25 0s25 11.2 25 25-11.2 25-25 25z"/><path id="路径" class="st1" d="M32.5 17c1.2-.5 2.4.5 2.2 1.7l-2.4 14.7c-.2 1.4-1.8 2.2-3.1 1.5-1.1-.6-2.7-1.5-4.2-2.4-.7-.5-2.9-2-2.7-3.1.2-.9 4-4.4 6.1-6.5.8-.8.5-1.3-.5-.5-2.5 1.9-6.4 4.7-7.7 5.5-1.2.7-1.8.8-2.5.7-1.3-.2-2.5-.6-3.5-1-1.3-.6-1.3-2.4 0-2.9L32.5 17z"/></svg>