<svg width="500" height="165" viewBox="0 0 500 165" fill="none" xmlns="http://www.w3.org/2000/svg">
<path d="M77.6 2.2V0H86.9V2.2H77.6Z" fill="white"/>
<path d="M135.4 2.2V0H144.7V2.2H135.4Z" fill="white"/>
<path d="M69.4 24.7999V6.69995H71.8V24.7999H69.4Z" fill="white"/>
<path d="M92.6 24.7999V6.69995H95V24.7999H92.6Z" fill="white"/>
<path d="M127.3 24.7999V6.69995H129.7V24.7999H127.3Z" fill="white"/>
<path d="M150.4 24.7999V6.69995H152.8V24.7999H150.4Z" fill="white"/>
<path d="M19.7 48.5V46.3H29V48.5H19.7Z" fill="white"/>
<path d="M31.3 48.5V46.3H40.6V48.5H31.3Z" fill="white"/>
<path d="M54.4 48.5V46.3H63.7V48.5H54.4Z" fill="white"/>
<path d="M69.4 47.9001V29.8H71.8V47.9001H69.4Z" fill="white"/>
<path d="M92.6 47.9001V29.8H95V47.9001H92.6Z" fill="white"/>
<path d="M112.3 48.5V46.3H121.6V48.5H112.3Z" fill="white"/>
<path d="M127.3 47.9001V29.8H129.7V47.9001H127.3Z" fill="white"/>
<path d="M150.4 47.9001V29.8H152.8V47.9001H150.4Z" fill="white"/>
<path d="M170.2 48.5V46.3H179.5V48.5H170.2Z" fill="white"/>
<path d="M181.7 48.5V46.3H191V48.5H181.7Z" fill="white"/>
<path d="M193.3 48.5V46.3H202.6V48.5H193.3Z" fill="white"/>
<path d="M204.9 48.5V46.3H214.2V48.5H204.9Z" fill="white"/>
<path d="M216.4 48.5V46.3H225.7V48.5H216.4Z" fill="white"/>
<path d="M239.6 48.5V46.3H248.9V48.5H239.6Z" fill="white"/>
<path d="M251.2 48.5V46.3H260.5V48.5H251.2Z" fill="white"/>
<path d="M262.7 48.5V46.3H272V48.5H262.7Z" fill="white"/>
<path d="M297.4 48.5V46.3H306.7V48.5H297.4Z" fill="white"/>
<path d="M320.6 48.5V46.3H329.9V48.5H320.6Z" fill="white"/>
<path d="M332.2 48.5V46.3H341.5V48.5H332.2Z" fill="white"/>
<path d="M378.4 48.5V46.3H387.7V48.5H378.4Z" fill="white"/>
<path d="M390 48.5V46.3H399.3V48.5H390Z" fill="white"/>
<path d="M413.2 48.5V46.3H422.5V48.5H413.2Z" fill="white"/>
<path d="M436.3 48.5V46.3H445.6V48.5H436.3Z" fill="white"/>
<path d="M459.4 48.5V46.3H468.7V48.5H459.4Z" fill="white"/>
<path d="M471 48.5V46.3H480.3V48.5H471Z" fill="white"/>
<path d="M8.20001 71.1L15 53H17.5L10.7 71.1H8.20001Z" fill="white"/>
<path d="M31.3 71.6V69.4H40.6V71.6H31.3Z" fill="white"/>
<path d="M47.1 56.5L44.9 53.8H47.6L49.7 56.5H47.1Z" fill="white"/>
<path d="M69.4 71.1V52.9H71.8V71H69.4V71.1Z" fill="white"/>
<path d="M92.6 71.1V52.9H95V71H92.6V71.1Z" fill="white"/>
<path d="M100.7 71.1L107.5 53H110L103.2 71.1H100.7Z" fill="white"/>
<path d="M123.9 71.1L130.7 53H133.2L126.4 71.1H123.9Z" fill="white"/>
<path d="M150.4 71.1V52.9H152.8V71H150.4V71.1Z" fill="white"/>
<path d="M158.6 71.1L165.4 53H167.9L161.1 71.1H158.6Z" fill="white"/>
<path d="M181.7 71.1L188.5 53H191L184.2 71.1H181.7Z" fill="white"/>
<path d="M204.9 71.6V69.4H214.2V71.6H204.9Z" fill="white"/>
<path d="M216.4 71.6V69.4H225.7V71.6H216.4Z" fill="white"/>
<path d="M228 71.1L234.8 53H237.3L230.5 71.1H228Z" fill="white"/>
<path d="M251.2 71.6V69.4H260.5V71.6H251.2Z" fill="white"/>
<path d="M281 71.1L274.3 53H276.8L283.5 71.1H281Z" fill="white"/>
<path d="M289.3 71.1V52.9H291.7V71H289.3V71.1Z" fill="white"/>
<path d="M312.6 60.7L312.3 57.9V54.9H314.7V57.9L314.5 60.7H312.6Z" fill="white"/>
<path d="M320.6 71.6V69.4H329.9V71.6H320.6Z" fill="white"/>
<path d="M350.5 71.1L343.8 53H346.3L353 71.1H350.5Z" fill="white"/>
<path d="M366.9 71.1L373.7 53H376.2L369.4 71.1H366.9Z" fill="white"/>
<path d="M390 71.6V69.4H399.3V71.6H390Z" fill="white"/>
<path d="M405.8 56.5L403.6 53.8H406.3L408.4 56.5H405.8Z" fill="white"/>
<path d="M428.1 71.1V52.9H430.5V71H428.1V71.1Z" fill="white"/>
<path d="M451.5 60.7L451.2 57.9V54.9H453.6V57.9L453.4 60.7H451.5Z" fill="white"/>
<path d="M459.4 71.6V69.4H468.7V71.6H459.4Z" fill="white"/>
<path d="M489.3 71.1L482.6 53H485.1L491.8 71.1H489.3Z" fill="white"/>
<path d="M0 94.2V76.1H2.4V94.2H0Z" fill="white"/>
<path d="M27.9 94.4C25.9 93.9 24.4 93 23.4 91.7C22.3 90.4 21.8 88.8 21.8 86.9V83.4C21.8 82.2 22 81 22.5 80C23 79 23.7 78.1 24.6 77.4C25.5 76.7 26.6 76.2 27.9 75.8V78.2C27.1 78.4 26.5 78.7 25.9 79.2C25.3 79.7 24.9 80.3 24.6 81C24.3 81.7 24.2 82.5 24.2 83.4V86.9C24.2 87.8 24.3 88.5 24.6 89.2C24.9 89.9 25.3 90.5 25.9 91C26.5 91.5 27.1 91.8 27.9 92V94.4Z" fill="white"/>
<path d="M31.3 94.8V92.6H40.6V94.8H31.3Z" fill="white"/>
<path d="M46.3 94.2V76.1H48.7V94.2H46.3Z" fill="white"/>
<path d="M69.4 94.2V76.1H71.8V94.2H69.4Z" fill="white"/>
<path d="M121.6 91L113 86.9V84.5L121.6 80.4V82.6L116 85.2C115.7 85.3 115.5 85.4 115.2 85.5C114.9 85.6 114.8 85.6 114.6 85.7C114.7 85.7 114.9 85.8 115.2 85.9C115.5 86 115.7 86.1 116 86.2L121.6 88.8V91Z" fill="white"/>
<path d="M127.3 94.2V76.1H129.7V94.2H127.3Z" fill="white"/>
<path d="M179.1 91L170.5 86.9V84.5L179.1 80.4V82.6L173.5 85.2C173.2 85.3 173 85.4 172.7 85.5C172.4 85.6 172.3 85.6 172.1 85.7C172.2 85.7 172.4 85.8 172.7 85.9C173 86 173.2 86.1 173.5 86.2L179.1 88.8V91Z" fill="white"/>
<path d="M201.5 94.4C199.5 93.9 198 93 197 91.7C195.9 90.4 195.4 88.8 195.4 86.9V83.4C195.4 82.2 195.6 81 196.1 80C196.6 79 197.3 78.1 198.2 77.4C199.1 76.7 200.2 76.2 201.5 75.8V78.2C200.7 78.4 200.1 78.7 199.5 79.2C198.9 79.7 198.5 80.3 198.2 81C197.9 81.7 197.8 82.5 197.8 83.4V86.9C197.8 87.8 197.9 88.5 198.2 89.2C198.5 89.9 198.9 90.5 199.5 91C200.1 91.5 200.7 91.8 201.5 92V94.4Z" fill="white"/>
<path d="M204.9 94.8V92.6H214.2V94.8H204.9Z" fill="white"/>
<path d="M219.9 94.2V76.1H222.3V94.2H219.9Z" fill="white"/>
<path d="M247.8 94.4C245.8 93.9 244.3 93 243.3 91.7C242.2 90.4 241.7 88.8 241.7 86.9V83.4C241.7 82.2 241.9 81 242.4 80C242.9 79 243.6 78.1 244.5 77.4C245.4 76.7 246.5 76.2 247.8 75.8V78.2C247 78.4 246.4 78.7 245.8 79.2C245.2 79.7 244.8 80.3 244.5 81C244.2 81.7 244.1 82.5 244.1 83.4V86.9C244.1 87.8 244.2 88.5 244.5 89.2C244.8 89.9 245.2 90.5 245.8 91C246.4 91.5 247 91.8 247.8 92V94.4Z" fill="white"/>
<path d="M251.2 94.8V92.6H260.5V94.8H251.2Z" fill="white"/>
<path d="M263.8 94.4V92C264.6 91.8 265.2 91.5 265.8 91C266.4 90.5 266.8 89.9 267.1 89.2C267.4 88.5 267.5 87.7 267.5 86.9V83.4C267.5 82.5 267.4 81.7 267.1 81C266.8 80.3 266.4 79.7 265.8 79.2C265.2 78.7 264.6 78.4 263.8 78.2V75.8C265.1 76.1 266.2 76.7 267.1 77.4C268 78.1 268.7 79 269.2 80C269.7 81 269.9 82.1 269.9 83.4V86.9C269.9 88.8 269.4 90.4 268.3 91.7C267.3 93 265.7 93.9 263.8 94.4Z" fill="white"/>
<path d="M289.3 94.2V76.1H291.7V94.2H289.3Z" fill="white"/>
<path d="M312.4 94.2V76.1H314.8V94.2H312.4Z" fill="white"/>
<path d="M335.6 94.2V76.1H338V94.2H335.6Z" fill="white"/>
<path d="M358.7 94.2V76.1H361.1V94.2H358.7Z" fill="white"/>
<path d="M386.6 94.4C384.6 93.9 383.1 93 382.1 91.7C381 90.4 380.5 88.8 380.5 86.9V83.4C380.5 82.2 380.7 81 381.2 80C381.7 79 382.4 78.1 383.3 77.4C384.2 76.7 385.3 76.2 386.6 75.8V78.2C385.8 78.4 385.2 78.7 384.6 79.2C384 79.7 383.6 80.3 383.3 81C383 81.7 382.9 82.5 382.9 83.4V86.9C382.9 87.8 383 88.5 383.3 89.2C383.6 89.9 384 90.5 384.6 91C385.2 91.5 385.8 91.8 386.6 92V94.4Z" fill="white"/>
<path d="M390 94.8V92.6H399.3V94.8H390Z" fill="white"/>
<path d="M405 94.2V76.1H407.4V94.2H405Z" fill="white"/>
<path d="M428.1 94.2V76.1H430.5V94.2H428.1Z" fill="white"/>
<path d="M451.3 94.2V76.1H453.7V94.2H451.3Z" fill="white"/>
<path d="M474.4 94.2V76.1H476.8V94.2H474.4Z" fill="white"/>
<path d="M497.6 94.2V76.1H500V94.2H497.6Z" fill="white"/>
<path d="M14.9 117.4L8.20001 99.2H10.7L17.4 117.3H14.9V117.4Z" fill="white"/>
<path d="M19.7 117.9V115.7H29V117.9H19.7Z" fill="white"/>
<path d="M31.3 117.9V115.7H40.6V117.9H31.3Z" fill="white"/>
<path d="M44.6 118.3L46.1 112.3H49.2L46.7 118.3H44.6Z" fill="white"/>
<path d="M69.4 117.4V99.2H71.8V117.3H69.4V117.4Z" fill="white"/>
<path d="M77.6 117.9V115.7H86.9V117.9H77.6Z" fill="white"/>
<path d="M92.6 117.4V99.2H95V117.3H92.6V117.4Z" fill="white"/>
<path d="M107.5 117.4L100.8 99.3H103.3L110 117.4H107.5Z" fill="white"/>
<path d="M112.3 117.9V115.7H121.6V117.9H112.3Z" fill="white"/>
<path d="M130.6 117.4L123.9 99.3H126.4L133.1 117.4H130.6Z" fill="white"/>
<path d="M135.4 117.9V115.7H144.7V117.9H135.4Z" fill="white"/>
<path d="M150.4 117.4V99.2H152.8V117.3H150.4V117.4Z" fill="white"/>
<path d="M165.3 117.4L158.6 99.3H161.1L167.8 117.4H165.3Z" fill="white"/>
<path d="M170.2 117.9V115.7H179.5V117.9H170.2Z" fill="white"/>
<path d="M188.5 117.4L181.8 99.3H184.3L191 117.4H188.5Z" fill="white"/>
<path d="M193.3 117.9V115.7H202.6V117.9H193.3Z" fill="white"/>
<path d="M204.9 117.9V115.7H214.2V117.9H204.9Z" fill="white"/>
<path d="M216.4 117.9V115.7H225.7V117.9H216.4Z" fill="white"/>
<path d="M234.7 117.4L228 99.2H230.5L237.2 117.3H234.7V117.4Z" fill="white"/>
<path d="M239.6 117.9V115.7H248.9V117.9H239.6Z" fill="white"/>
<path d="M251.2 117.9V115.7H260.5V117.9H251.2Z" fill="white"/>
<path d="M262.7 117.9V115.7H272V117.9H262.7Z" fill="white"/>
<path d="M274.3 117.4L281.1 99.3H283.6L276.8 117.4H274.3Z" fill="white"/>
<path d="M289.3 117.4V99.2H291.7V117.3H289.3V117.4Z" fill="white"/>
<path d="M297.4 117.9V115.7H306.7V117.9H297.4Z" fill="white"/>
<path d="M312.4 117.4V99.2H314.8V117.3H312.4V117.4Z" fill="white"/>
<path d="M335.6 117.4V99.2H338V117.3H335.6V117.4Z" fill="white"/>
<path d="M343.7 117.9V115.7H353V117.9H343.7Z" fill="white"/>
<path d="M358.7 117.4V99.2H361.1V117.3H358.7V117.4Z" fill="white"/>
<path d="M373.6 117.4L366.9 99.3H369.4L376.1 117.4H373.6Z" fill="white"/>
<path d="M378.4 117.9V115.7H387.7V117.9H378.4Z" fill="white"/>
<path d="M390 117.9V115.7H399.3V117.9H390Z" fill="white"/>
<path d="M403.3 118.3L404.8 112.3H407.9L405.4 118.3H403.3Z" fill="white"/>
<path d="M413.2 117.9V115.7H422.5V117.9H413.2Z" fill="white"/>
<path d="M428.1 117.4V99.2H430.5V117.3H428.1V117.4Z" fill="white"/>
<path d="M436.3 117.9V115.7H445.6V117.9H436.3Z" fill="white"/>
<path d="M451.3 117.4V99.2H453.7V117.3H451.3V117.4Z" fill="white"/>
<path d="M474.4 117.4V99.2H476.8V117.3H474.4V117.4Z" fill="white"/>
<path d="M482.6 117.9V115.7H491.9V117.9H482.6Z" fill="white"/>
<path d="M497.6 117.4V99.2H500V117.3H497.6V117.4Z" fill="white"/>
<path d="M19.7 141V138.8H29V141H19.7Z" fill="white"/>
<path d="M31.3 141V138.8H40.6V141H31.3Z" fill="white"/>
<path d="M42.9 140.5L49.7 122.4H52.2L45.4 140.5H42.9Z" fill="white"/>
<path d="M69.4 140.5V122.4H71.8V140.5H69.4Z" fill="white"/>
<path d="M11.6 163.6V145.5H14V163.6H11.6Z" fill="white"/>
<path d="M19.7 164.2V162H29V164.2H19.7Z" fill="white"/>
<path d="M31.3 164.2V162H40.6V164.2H31.3Z" fill="white"/>
<path d="M42.9 164.2V162H52.2V164.2H42.9Z" fill="white"/>
<path d="M54.4 163.6L61.2 145.5H63.7L57 163.6H54.4Z" fill="white"/>
</svg>
