<?xml version="1.0" encoding="utf-8"?>
<!-- Generator: Adobe Illustrator 26.1.0, SVG Export Plug-In . SVG Version: 6.00 Build 0)  -->
<svg version="1.1" id="Livello_1" xmlns="http://www.w3.org/2000/svg" xmlns:xlink="http://www.w3.org/1999/xlink" x="0px" y="0px"
	 viewBox="0 0 50 50" style="enable-background:new 0 0 50 50;" xml:space="preserve">
<style type="text/css">
	.st0{fill:#7F7BB1;}
</style>
<g>
	<path class="st0" d="M23.1,25.6c0,1.4-1,2.5-2.2,2.5c-1.2,0-2.2-1.1-2.2-2.5s1-2.5,2.2-2.5C22.1,23.1,23.1,24.2,23.1,25.6z"/>
</g>
<g>
	<path class="st0" d="M31.4,25.6c0,1.4-1,2.5-2.2,2.5c-1.2,0-2.2-1.1-2.2-2.5s1-2.5,2.2-2.5C30.4,23.1,31.4,24.2,31.4,25.6z"/>
</g>
<g>
	<path class="st0" d="M25,0C11.2,0,0,11.2,0,25s11.2,25,25,25s25-11.2,25-25S38.8,0,25,0z M37.4,31.1c-2.2,1.6-4.3,2.6-6.3,3.2
		c-0.5-0.7-1-1.5-1.4-2.2c0.7-0.3,1.5-0.6,2.1-1c-0.2-0.1-0.4-0.3-0.5-0.4c-4.1,1.9-8.5,1.9-12.6,0c-0.2,0.1-0.3,0.3-0.5,0.4
		c0.7,0.4,1.4,0.8,2.1,1c-0.4,0.8-0.8,1.5-1.4,2.2c-2.1-0.6-4.2-1.6-6.3-3.2c-0.4-4.7,0.4-9.5,3.7-14.5c1.6-0.8,3.3-1.3,5.1-1.6
		c0.2,0.4,0.5,0.9,0.7,1.4c1.9-0.3,3.8-0.3,5.7,0c0.2-0.4,0.4-1,0.7-1.4c1.8,0.3,3.5,0.9,5.1,1.6h0C36.5,20.8,37.9,25.6,37.4,31.1z"
		/>
</g>
<g id="SVGRepo_bgCarrier">
</g>
<g id="SVGRepo_tracerCarrier">
</g>
</svg>
