<?xml version="1.0" encoding="utf-8"?>
<!-- Generator: Adobe Illustrator 26.1.0, SVG Export Plug-In . SVG Version: 6.00 Build 0)  -->
<svg version="1.1" id="Livello_1" xmlns="http://www.w3.org/2000/svg" xmlns:xlink="http://www.w3.org/1999/xlink" x="0px" y="0px"
	 viewBox="0 0 50 50" style="enable-background:new 0 0 50 50;" xml:space="preserve">
<style type="text/css">
	.st0{fill:#7F7BB1;}
</style>
<g id="SVGRepo_bgCarrier">
</g>
<g id="SVGRepo_tracerCarrier">
</g>
<g>
	<path class="st0" d="M25,0C11.2,0,0,11.2,0,25l0,0c0,13.8,11.2,25,25,25s25-11.2,25-25l0,0C50,11.2,38.8,0,25,0z M20.3,34h-3.9
		V20.1h3.9V34z M18.3,18.5c-1.3,0-2.3-1-2.3-2.2s1-2.2,2.3-2.2s2.3,1,2.3,2.2S19.6,18.5,18.3,18.5z M36,34h-3.9v-7.1
		c0-4.3-5.2-3.9-5.2,0V34H23V20.1h3.9v2.2c1.8-3.3,9.2-3.5,9.2,3.1L36,34L36,34z"/>
</g>
</svg>
