<?xml version="1.0" encoding="utf-8"?>
<!-- Generator: Adobe Illustrator 26.1.0, SVG Export Plug-In . SVG Version: 6.00 Build 0)  -->
<svg version="1.1" id="Livello_1" xmlns="http://www.w3.org/2000/svg" xmlns:xlink="http://www.w3.org/1999/xlink" x="0px" y="0px"
	 viewBox="0 0 50 50" style="enable-background:new 0 0 50 50;" xml:space="preserve">
<style type="text/css">
	.st0{fill:#7F7BB1;}
</style>
<g>
	<path class="st0" d="M25,0C11.2,0,0,11.2,0,25l0,0c0,13.8,11.2,25,25,25s25-11.2,25-25l0,0C50,11.2,38.8,0,25,0z M34,19.2
		l-2.2,13.7c-0.2,1.3-1.7,2-2.9,1.4c-1-0.6-2.5-1.4-3.9-2.2c-0.7-0.5-2.7-1.9-2.5-2.9c0.2-0.8,3.7-4.1,5.7-6
		c0.7-0.7,0.5-1.2-0.5-0.5c-2.3,1.8-6,4.4-7.2,5.1c-1.1,0.7-1.7,0.7-2.3,0.7c-1.2-0.2-2.3-0.6-3.3-0.9c-1.2-0.6-1.2-2.2,0-2.7
		l17-7.2C33,17.2,34.1,18.1,34,19.2z"/>
</g>
</svg>
